<?xml version="1.0"?><svg fill="#000000" xmlns="http://www.w3.org/2000/svg"  viewBox="0 0 50 50" width="50px" height="50px">    <path d="M 25 2 C 12.318 2 2 12.317 2 25 C 2 37.683 12.318 48 25 48 C 37.682 48 48 37.683 48 25 C 48 12.317 37.682 2 25 2 z M 17.761719 9.0292969 C 19.882766 8.8699219 22.4305 9.9196562 25 11.910156 C 28.425 9.2561563 31.810172 8.2735625 34.201172 9.6015625 C 35.394172 10.264563 36.249781 11.455969 36.675781 13.042969 C 37.108781 14.660969 37.100078 16.645078 36.705078 18.830078 C 40.598078 20.273078 43 22.462 43 25 C 43 27.538 40.598125 29.725922 36.703125 31.169922 C 37.098125 33.355922 37.106828 35.342938 36.673828 36.960938 C 36.248828 38.547938 35.394172 39.737391 34.201172 40.400391 C 33.484172 40.798391 32.677641 40.988281 31.806641 40.988281 C 29.775641 40.988281 27.396047 39.940031 24.998047 38.082031 C 22.600047 39.940031 20.220453 40.988281 18.189453 40.988281 C 17.318453 40.988281 16.514875 40.799391 15.796875 40.400391 C 14.603875 39.737391 13.748266 38.547937 13.322266 36.960938 C 12.889266 35.342937 12.897969 33.355922 13.292969 31.169922 C 9.4019687 29.725922 7 27.538 7 25 C 7 22.463 9.4019219 20.274078 13.294922 18.830078 C 12.899922 16.644078 12.891219 14.659969 13.324219 13.042969 C 13.749219 11.454969 14.605828 10.264563 15.798828 9.6015625 C 16.396078 9.2695625 17.054703 9.0824219 17.761719 9.0292969 z M 18.240234 11.001953 C 17.683234 11.001953 17.188531 11.116609 16.769531 11.349609 C 16.051531 11.748609 15.540859 12.492594 15.255859 13.558594 C 14.913859 14.835594 14.912891 16.43375 15.212891 18.21875 C 16.602891 17.83275 18.126625 17.529266 19.765625 17.322266 C 20.952625 15.760266 22.198891 14.386609 23.462891 13.224609 C 21.500891 11.764609 19.669234 11.001953 18.240234 11.001953 z M 31.759766 11.001953 C 30.329766 11.001953 28.496156 11.764609 26.535156 13.224609 C 27.798156 14.386609 29.047375 15.760266 30.234375 17.322266 C 31.873375 17.528266 33.397109 17.83275 34.787109 18.21875 C 35.087109 16.43375 35.084187 14.835594 34.742188 13.558594 C 34.456187 12.492594 33.948469 11.748609 33.230469 11.349609 C 32.811469 11.117609 32.315766 11.001953 31.759766 11.001953 z M 25 14.486328 C 24.172 15.234328 23.334859 16.101125 22.505859 17.078125 C 23.319859 17.032125 24.147 17 25 17 C 25.853 17 26.679141 17.032125 27.494141 17.078125 C 26.664141 16.101125 25.827 15.234328 25 14.486328 z M 25 19 C 23.534 19 22.146031 19.084609 20.832031 19.224609 C 20.258031 20.025609 19.693484 20.877109 19.146484 21.787109 C 18.506484 22.854109 17.936547 23.932 17.435547 25 C 17.937547 26.069 18.506484 27.146891 19.146484 28.212891 C 19.693484 29.124891 20.261891 29.972391 20.837891 30.775391 C 22.150891 30.915391 23.536 31 25 31 C 26.464 31 27.848156 30.916344 29.160156 30.777344 C 29.736156 29.975344 30.304563 29.125891 30.851562 28.212891 C 31.491563 27.145891 32.0615 26.069953 32.5625 25.001953 C 32.0615 23.932953 31.491562 22.855062 30.851562 21.789062 C 30.305562 20.878062 29.741969 20.025609 29.167969 19.224609 C 27.853969 19.084609 26.466 19 25 19 z M 18.158203 19.611328 C 17.269203 19.778328 16.426484 19.973312 15.646484 20.195312 C 15.854484 20.967312 16.113063 21.761313 16.414062 22.570312 C 16.734063 21.966313 17.070641 21.362766 17.431641 20.759766 C 17.667641 20.366766 17.913203 19.989328 18.158203 19.611328 z M 31.839844 19.611328 C 32.084844 19.989328 32.330406 20.366766 32.566406 20.759766 C 32.928406 21.362766 33.262031 21.966313 33.582031 22.570312 C 33.883031 21.761312 34.143563 20.967312 34.351562 20.195312 C 33.572562 19.973312 32.729844 19.778328 31.839844 19.611328 z M 13.748047 20.830078 C 10.759047 21.988078 9 23.536 9 25 C 9 26.465 10.76 28.011922 13.75 29.169922 C 14.118 27.821922 14.615281 26.423953 15.238281 25.001953 C 14.615281 23.578953 14.116047 22.178078 13.748047 20.830078 z M 36.25 20.830078 C 35.882 22.178078 35.385719 23.578953 34.761719 25.001953 C 35.384719 26.423953 35.880047 27.823875 36.248047 29.171875 C 39.238047 28.012875 41 26.465 41 25 C 41 23.535 39.24 21.988078 36.25 20.830078 z M 25 23 C 26.105 23 27 23.895 27 25 C 27 26.105 26.105 27 25 27 C 23.895 27 23 26.105 23 25 C 23 23.895 23.895 23 25 23 z M 16.416016 27.429688 C 16.115016 28.237687 15.856438 29.032688 15.648438 29.804688 C 16.425438 30.026688 17.263391 30.220719 18.150391 30.386719 C 17.907391 30.011719 17.667594 29.632188 17.433594 29.242188 C 17.071594 28.639187 16.736016 28.033688 16.416016 27.429688 z M 33.583984 27.429688 C 33.263984 28.033687 32.927406 28.639187 32.566406 29.242188 C 32.332406 29.633188 32.092609 30.012672 31.849609 30.388672 C 32.735609 30.221672 33.574563 30.026688 34.351562 29.804688 C 34.143563 29.033687 33.883984 28.237687 33.583984 27.429688 z M 15.212891 31.78125 C 14.912891 33.56725 14.913859 35.166359 15.255859 36.443359 C 15.541859 37.509359 16.051531 38.253344 16.769531 38.652344 C 18.261531 39.480344 20.732125 38.796391 23.453125 36.775391 C 22.191125 35.613391 20.944766 34.237734 19.759766 32.677734 C 18.121766 32.471734 16.600891 32.16625 15.212891 31.78125 z M 34.787109 31.78125 C 33.399109 32.16625 31.875281 32.471734 30.238281 32.677734 C 29.052281 34.238734 27.806922 35.614391 26.544922 36.775391 C 29.265922 38.796391 31.737469 39.481344 33.230469 38.652344 C 33.948469 38.253344 34.457187 37.509359 34.742188 36.443359 C 35.084187 35.166359 35.087109 33.56725 34.787109 31.78125 z M 22.513672 32.921875 C 23.339672 33.893875 24.173047 34.768672 24.998047 35.513672 C 25.823047 34.768672 26.658375 33.894875 27.484375 32.921875 C 26.673375 32.967875 25.849 33 25 33 C 24.151 33 23.325672 32.967875 22.513672 32.921875 z"/></svg>